ply
format ascii 1.0
comment VTK generated PLY File
obj_info vtkPolyData points and polygons : vtk4.0
element vertex 55
property float x
property float y
property float z
element face 0
property list uchar int vertex_indices
end_header
-0.932339 0.169032 7.61487 
-0.767384 1.36695 6.77608 
-0.552036 1.22207 6.58072 
-0.552036 1.22207 6.58072 
-0.563069 0.636759 7.38072 
-0.559436 -0.738556 7.73607 
-0.551855 -0.379564 7.93296 
-0.393227 1.12227 6.54741 
-0.393357 0.963283 6.64263 
-0.329323 0.952244 6.61185 
-0.329323 0.952244 6.61185 
-0.32073 1.05335 6.57783 
-0.357845 -1.17218 7.52358 
-0.354972 -0.00821754 7.8651 
-0.267063 1.17152 6.53684 
-0.27827 -0.902214 7.41301 
-0.278711 -1.16639 7.47353 
-0.215545 -0.164588 7.70373 
-0.198154 -0.981828 7.43349 
-0.19638 -2.37613 7.74956 
-0.19638 -2.37613 7.74956 
-0.157401 -2.55537 7.67322 
-0.13552 0.98331 6.9816 
-0.101656 -1.70409 7.68926 
-0.0733759 -1.09244 7.43308 
-0.0733759 -1.09244 7.43308 
-0.0404288 -0.53779 7.46903 
-0.0404288 -0.53779 7.46903 
0.0192723 -0.498071 7.92694 
0.111555 -0.93123 5.62909 
0.0655115 -1.09628 7.47077 
0.101731 -0.0571184 7.95164 
0.104973 -0.360748 7.91252 
0.12562 -1.25318 7.58081 
0.170966 -1.1409 7.54056 
0.318349 0.0155805 8.01948 
0.321844 -0.311355 6.31521 
0.404475 0.348255 8.0446 
0.418324 0.289209 8.09177 
-1.18989 -3.88873 -21.2274 
0.480706 0.3558 8.10606 
0.495026 0.554589 8.07585 
0.538034 0.435199 8.12241 
0.603803 0.522318 8.18197 
0.921903 0.21964 7.72057 
0.926907 1.09657 6.96994 
1.18184 0.703555 7.08643 
1.20118 0.688369 7.14941 
1.16237 0.972954 6.89634 
0.600322 -0.290907 3.04231 
1.31995 1.35912 7.04795 
0.617089 -0.283866 2.85017 
1.54154 0.958446 7.01019 
1.7158 1.20556 7.12128 
0.736527 -0.158675 2.82089 
